<svg xmlns="http://www.w3.org/2000/svg" viewBox="0 0 238.54 125.15"><title>innovation</title><text transform="translate(153.16 62.53)" style="font-size:11.489680290222168px;fill:#8e8688;font-family:Rajdhani, sans-serif">INNOVATION</text><path d="M44.37,59.16c-2.46,1.33-3.16,6.51-.57,8.09a3.12,3.12,0,0,0,4-.94c1.21-1.49.87-3.53.5-5.26-.28-1.3-2.27-.75-2,.55a5.27,5.27,0,0,1,.12,3C46,65.37,45,66,44.53,65s-.28-3.42.89-4.06.13-2.42-1-1.79Z" style="fill:#8f8688"/><path d="M47.22,62.6c2.66,0,2.67-4.14,0-4.14s-2.67,4.14,0,4.14Z" style="fill:#8f8688"/><path d="M44.91,45.57a49,49,0,0,1-7.45-14.94,14.21,14.21,0,0,1-.91-4.27c.06-1.63.46-1.87,2.08-2,3-.16,6,0,9,0,1.11,0,6.16-.46,6.2,1.27,0,1.51-4.57,3.94-5.66,5a27.33,27.33,0,0,0-7.54,12.84c-.56,2.17-1.19,4.89.3,6.83,1.63,2.12,4.39,2.18,6.64,1.14,4.56-2.1,7.66-6.62,10.26-10.71C60.72,36.3,62.7,30.9,59,26.3c-3.27-4-8.62-4.63-13.48-4.92-3-.18-7.11-.72-9.84.78-2.56,1.41-3.16,4.46-3.67,7.11-1.14,5.93-.18,12.09,5.34,15.45a4.18,4.18,0,0,0,6.08-2.47l1.06-3.7c.26-.9.52-3.4,1.17-4,.29-.29,3.5.07,4.67-.08,2.23-.3,4.11-1.69,4.14-4.14,0-2-1.92-4.43-4.14-4.14-3.57.47-7.28-.76-10.23,2S36.53,36.26,35.44,40l6.08-2.47c-1.46-.88-1.78-2.42-1.78-4a14.21,14.21,0,0,1,.36-2.71c.24-1.21,1.67-3-.32-1.85-2.18,1.26.93.57,1.73.56s1.78,0,2.67,0a26.08,26.08,0,0,1,6.06.66c4.16,1.17,1.95,4.1.23,6.77-1.56,2.42-3.75,6.28-6.74,7.08l3.19.42-.59-.26,2,3.57C48,44.39,50.78,40,53,37.63c2.65-2.88,6.43-4.58,8.23-8.19A8.57,8.57,0,0,0,59.13,19C56,16.2,51.66,16.16,47.69,16.14s-8.89-.74-12.82.43a9.51,9.51,0,0,0-6.52,8.54c-.69,8.35,4.72,18.1,9.42,24.63C40.85,54,48,49.9,44.91,45.57Z" style="fill:#e0b569"/><path d="M46.76,62.14c2.66,0,2.67-4.14,0-4.14s-2.67,4.14,0,4.14Z" style="fill:#8f8688"/><path d="M46.76,62.14c2.66,0,2.67-4.14,0-4.14s-2.67,4.14,0,4.14Z" style="fill:#8f8688"/><path d="M47,61c1.41-.42,4.37-1.69,3.44-3.66-.8-1.69-3.54-1.26-5-1.3s-3.91-.09-4.15,1.93c-.3,2.5,2.66,2.67,4.32,2.14,1.26-.4.72-2.4-.55-2-.29.09-.89.37-1.18.29-.85-.24.2-.31.35-.32.74,0,1.5,0,2.24,0a9,9,0,0,1,1.9.08,18.67,18.67,0,0,1-1.91.79A1,1,0,0,0,47,61Z" style="fill:#8f8688"/><path d="M46.1,52.45c-.49-2.5,1.23-5.4,2.15-7.62l2.51-6.08c.84-2,1.68-4.05,2.51-6.08.49-1.21,1.17-2.43.77-3.76A3.36,3.36,0,0,0,50,26.74c-2.75.63-3.61,3.58-4,6l1.73-.46c-1.46-1.48-2.09-7-5.49-4.14a3.48,3.48,0,0,0-1,1.82,6.45,6.45,0,0,0,.06,1.77c-.18.14-3.1-1.82-4.1-1.4-2.37,1-1.39,6-.12,7.56,1.62,2,4.49,1.71,5.23,4.68.85,3.37.84,7.16,1.21,10.61.14,1.31,2.21,1.32,2.07,0-.41-3.82-.19-8.45-1.54-12.1a5.85,5.85,0,0,0-2.09-2.82c-.89-.67-1.49-.81-2.47-1.64-.56-.47-2.66-3.1-1.56-4,.86-.7,2,1.22,3.3,1.31a1.51,1.51,0,0,0,1.59-.74c.46-.65,0-3.49,1.61-3a24.64,24.64,0,0,0,1.89,3.56,1,1,0,0,0,1.73-.46,7.3,7.3,0,0,1,.53-2.16q.31-2.58,3.31-.23c.12.48-1.31,3.17-1.51,3.65l-2.76,6.69C46,44.84,43.32,49,44.11,53c.26,1.31,2.25.75,2-.55Z" style="fill:#8f8688"/><path d="M21,37.7a4.1,4.1,0,0,0-4.28,2.85c-.41,1.27,1.58,1.81,2,.55A2.05,2.05,0,0,1,21,39.77a1,1,0,0,0,1-1,1.06,1.06,0,0,0-1-1Z" style="fill:#8f8688"/><path d="M18.43,25.94a34.44,34.44,0,0,1-5.77-.57c-1.3-.24-1.86,1.75-.55,2a37.78,37.78,0,0,0,6.32.64,1,1,0,0,0,0-2.07Z" style="fill:#8f8688"/><path d="M25,12.36,21.16,10c-1.13-.71-2.17,1.08-1,1.79l3.81,2.39c1.13.71,2.17-1.08,1-1.79Z" style="fill:#8f8688"/><path d="M35.48,8l-.06.1.89-.51c-.65,0-1.23-2-1.38-2.54a15.67,15.67,0,0,0-1-3c-.6-1.19-2.38-.14-1.79,1,.82,1.65.81,3.58,1.93,5.1.66.9,2.31,2.3,3.21.88C38,8,36.19,6.92,35.48,8Z" style="fill:#8f8688"/><path d="M47.56,1l.33,5.69C48,8,50,8,50,6.69L49.63,1c-.08-1.32-2.15-1.33-2.07,0Z" style="fill:#8f8688"/><path d="M59.45,3.85Q58.73,7,57.78,10c-.39,1.28,1.6,1.82,2,.55q.94-3.06,1.67-6.18c.3-1.3-1.69-1.85-2-.55Z" style="fill:#8f8688"/><path d="M71.09,12.14a15.86,15.86,0,0,1-5.71,1.93c-1.31.19-.75,2.18.55,2a17.38,17.38,0,0,0,6.2-2.14,1,1,0,0,0-1-1.79Z" style="fill:#8f8688"/><path d="M77.48,25.24l-6-1.09c-1.3-.24-1.86,1.76-.55,2l6,1.09c1.3.24,1.86-1.76.55-2Z" style="fill:#8f8688"/><path d="M74.07,39.5a34.86,34.86,0,0,1-6.26-4.44c-1-.88-2.46.57-1.46,1.46A37.32,37.32,0,0,0,73,41.29c1.16.65,2.21-1.14,1-1.79Z" style="fill:#8f8688"/><path d="M18.81,67.24c-5-.7-10.7-.59-13.14,4.65-1.19,2.56-.81,5.56-.82,8.3q0,4.88-.34,9.75-.3,4.54-.85,9.07c-.34,2.77-1.09,5.61-.81,8.41a8.11,8.11,0,0,0,2.52,5.46c2.22,1.93,4.81,1.57,7.53,1.56s5.3,1.28,7.83.92,3.93-2.45,4.63-4.73c1.81-5.93,2.4-12.62,2.87-18.78.41-5.41,1.4-12.35-.75-17.5-1.87-4.48-7.26-7.3-11.71-4.45-4.71,3-4.86,9.69-4.63,14.64.16,3.46.66,6.89.86,10.35.18,2.95.57,7.07-1,9.73l2.47-1.9-.6.2,3.19.42c1.1.82.16-.47.14-1.25A6.66,6.66,0,0,1,17,99.22c1-2.21,2.69-4.1,3.89-6.21A25.31,25.31,0,0,0,24.17,79c-.3-5.3-8.57-5.33-8.28,0,.32,5.68-2,9.52-4.89,14.15-2.41,3.84-4,8.5-2.44,13,1.43,4,6.42,7.23,9.57,2.71,2.65-3.82,2.4-10.11,2.1-14.51-.33-4.93-1.46-10.11-.73-15a12.69,12.69,0,0,1,.69-2.34c-.2.6-.7-.63-.51.33.08.39.36.86.45,1.29.53,2.51.16,5.48.08,8a110.14,110.14,0,0,1-1.89,17.33c-.19,1-1,3-.82,3.89l-.15.65L19,106.89a9.47,9.47,0,0,0-2.22-.4,27.19,27.19,0,0,0-3.35-.32,5,5,0,0,0-1.69,0c-.56.28-.68.63-.67.65-.37-.65.08-2.19.17-2.87.22-1.66.47-3.31.67-5q.55-4.52.85-9.07t.34-9.1c0-1-.54-4.19,0-5.09.64-1.08,2.35-.7,3.5-.54,2.23.32,4.42-.55,5.09-2.89.56-1.94-.68-4.78-2.89-5.09Z" style="fill:#e0b569"/><path d="M45.89,69.78c-5-.7-10.7-.59-13.14,4.65-1.19,2.56-.81,5.56-.82,8.3q0,4.88-.34,9.75-.3,4.54-.85,9.07c-.34,2.77-1.09,5.61-.81,8.41a8.11,8.11,0,0,0,2.52,5.46C34.67,117.36,37.26,117,40,117s5.3,1.28,7.83.92,3.93-2.45,4.63-4.73c1.81-5.93,2.4-12.62,2.87-18.78C55.71,89,56.7,82,54.55,76.9c-1.87-4.48-7.26-7.3-11.71-4.45-4.71,3-4.86,9.69-4.63,14.64.16,3.46.66,6.89.86,10.35.18,2.95.57,7.07-1,9.73l2.47-1.9-.6.2,3.19.42c1.1.82.16-.47.14-1.25a6.66,6.66,0,0,1,.82-2.87c1-2.21,2.69-4.1,3.89-6.21A25.31,25.31,0,0,0,51.25,81.5c-.3-5.3-8.57-5.33-8.28,0,.32,5.68-2,9.52-4.89,14.15-2.41,3.84-4,8.5-2.44,13,1.43,4,6.42,7.23,9.57,2.71,2.65-3.82,2.4-10.11,2.1-14.51-.33-4.93-1.46-10.11-.73-15a12.69,12.69,0,0,1,.69-2.34c-.2.6-.7-.63-.51.33.08.39.36.86.45,1.29.53,2.51.16,5.48.08,8a110.14,110.14,0,0,1-1.89,17.33c-.19,1-1,3-.82,3.89l-.15.65,1.66-1.55a9.47,9.47,0,0,0-2.22-.4,27.19,27.19,0,0,0-3.35-.32,5,5,0,0,0-1.69,0c-.56.28-.68.63-.67.65-.37-.65.08-2.19.17-2.87.22-1.66.47-3.31.67-5q.55-4.52.85-9.07t.34-9.1c0-1-.54-4.19,0-5.09.64-1.08,2.35-.7,3.5-.54,2.23.32,4.42-.55,5.09-2.89.56-1.94-.68-4.78-2.89-5.09Z" style="fill:#e0b569"/><path d="M72.16,71.67c-4.51-.64-9.93-.64-12.41,4-1.2,2.26-1,4.87-1,7.35q0,4.72-.28,9.43c-.19,3.14-.47,6.27-.86,9.39-.32,2.58-1,5.2-.71,7.81a7.79,7.79,0,0,0,2.35,5.18c2.24,2,4.82,1.56,7.57,1.59,2.48,0,5.23,1.42,7.66.78,2.18-.58,3.39-2.53,4-4.55,1.72-5.62,2.27-12,2.71-17.81.38-5.05,1.29-11.51-.72-16.32-1.8-4.3-6.83-7-11.16-4.42-4.77,2.82-4.9,9.45-4.66,14.31.16,3.19.62,6.35.81,9.54.15,2.7.52,6.45-.92,8.88l2.47-1.9-.56.19,3.19.42c1.17.87.28-.12.26-.94a6.26,6.26,0,0,1,.8-2.7c1.05-2.17,2.7-4,3.84-6.14A24.06,24.06,0,0,0,77.37,82.9c-.3-5.3-8.57-5.33-8.28,0a16.21,16.21,0,0,1-1.69,8.68c-1.47,2.83-3.63,5.2-4.79,8.21-1.53,4-1.54,10.52,2.85,12.89,6.68,3.6,8.21-7.13,8.34-11.2C74,95.54,72.23,89.56,73,83.65a7.29,7.29,0,0,1,.34-1.8q.74-1.17-.44-.23c-.16,1.07.35,3,.36,4.11,0,3-.08,6.08-.3,9.11a99.4,99.4,0,0,1-1.35,10.52c-.08.41-1.13,5.07-1.06,5.1q3.32-1.87.49-1.91l-2.32-.31c-.54,0-4.41-.62-3.6.61-.24-.36.19-2.27.22-2.55.45-3.49.93-7,1.22-10.47S67,88.64,67,85.05c0-.9-.55-4.51,0-5.15s2-.38,2.95-.25c2.23.32,4.42-.55,5.09-2.89.56-1.94-.68-4.78-2.89-5.09Z" style="fill:#e0b569"/><path d="M97.84,74.83c-4.68-.66-10-.5-12.29,4.42-1.06,2.25-.77,4.86-.77,7.28q0,4.52-.3,9c-.18,2.79-.44,5.58-.79,8.35-.31,2.47-1,5-.68,7.5a7.68,7.68,0,0,0,2.3,5.06c2,1.78,4.3,1.6,6.78,1.56,4.5-.06,9.62,2.67,11.73-3.06,1.86-5.08,2.24-11.27,2.7-16.62.44-5.16,1.42-11.91-.6-16.82-1.74-4.24-6.7-6.85-10.94-4.34-4.53,2.68-4.76,8.89-4.56,13.53.13,3,.56,6,.75,9,.17,2.68.62,6.48-.82,8.9l2.47-1.9-.53.18,3.19.42c1,.73.28-.29.37-1.24a6.84,6.84,0,0,1,1-2.5c1-1.86,2.38-3.51,3.39-5.38A23.33,23.33,0,0,0,103,85.75c-.28-5.3-8.56-5.33-8.28,0A15.56,15.56,0,0,1,92.51,95c-1.38,2.31-3,4.37-4,6.91-1.53,4-1.43,11.52,3.8,13,11.15,3.06,5.86-23.51,6.44-28.3a6.83,6.83,0,0,1,.32-1.73q.73-1.22-.69,0c-.27.77.26,2.9.27,3.73A102.67,102.67,0,0,1,98.19,99c-.29,3.11-.74,6.2-1.33,9.26q-.25,1.29-.53,2.56-1,3,1.56-.45c-.13-.35-3.16-.51-3.43-.53-.61-.05-4.44-.69-3.28.71-.39-.47.33-3.13.4-3.63.41-2.92.75-5.85,1-8.8s.4-6,.47-9c0-1.53-.37-3.69,0-5.16q-.5-1.23.62-1.26a11.86,11.86,0,0,1,2,.13c2.23.32,4.42-.55,5.09-2.89.56-1.94-.68-4.78-2.89-5.09Z" style="fill:#e0b569"/><path d="M122.83,74.79c-5.81-.79-11.64.68-12.05,7.52-.4,6.62-.22,13.14-1.13,19.74-.63,4.56-.73,10.35,5,11.31,1.49.25,3-.07,4.45.07s3,.84,4.53.75c2.93-.18,4.39-2.5,5.06-5.07a84.42,84.42,0,0,0,2.38-20.34c0-5.19-.61-12.06-7.16-12.76-5.61-.6-7.92,5-8.24,9.65a63.2,63.2,0,0,0,.51,9.7c.22,2.61.9,6.63-.52,9l2.47-1.9-.46.15,3.19.42c1,.76.35.11.66-.76a13,13,0,0,1,.84-2c1-1.71,2.2-3.22,3.08-5a21,21,0,0,0,2.19-10.53c-.26-5.3-8.53-5.33-8.28,0,.2,4.19-1.35,6.92-3.52,10.33-1.76,2.77-3,5.82-2.58,9.16.36,2.8,2.25,6.44,5.51,6.46,3.66,0,4.95-3.56,5.48-6.56a39.07,39.07,0,0,0,0-10.66c-.17-1.82-.37-3.64-.39-5.47,0-.92.18-2,.11-2.87a4.4,4.4,0,0,1,.28-1.28l-1.71.21a11.13,11.13,0,0,0,.2,2c.06,1.11,0,2.24,0,3.35q-.05,3-.3,6c-.19,2.3-.47,4.59-.87,6.87q-.23,1.32-.49,2.63-.2,1-.42,2-.3,1.2,0,.21l2.93-1.21c-1.52-.18-3-.66-4.53-.75a12.56,12.56,0,0,0-1.85,0q-1.42-.18.17,1c.87-2.15.75-5.94,1-8.24q.47-4.64.6-9.3c0-1.33,0-2.66,0-4,0-2.28-.57-2.09,1.56-1.8s4.42-.54,5.09-2.89c.55-1.93-.68-4.79-2.89-5.09Z" style="fill:#e0b569"/><path d="M150.51,75.27c-4.7-.64-10.29-.37-12.24,4.84-.8,2.13-.54,4.5-.55,6.72q0,4.6-.34,9.19c-.34,4.87-2.06,10.41-1.3,15.24s4.41,6,8.83,6c4.24-.06,9,2.56,11.25-2.57,2.07-4.66,2.31-11,2.77-16s1.34-11.39-.33-16.31c-1.41-4.15-6-7.13-10.26-5.16-4.92,2.27-5.37,8.45-5.2,13.19.1,2.84.5,5.66.71,8.49.19,2.66.7,6.62-.74,9l2.47-1.9-.52.17,3.19.42c1,.76.34,0,.43-1a6.45,6.45,0,0,1,.94-2.38c1-1.8,2.3-3.39,3.28-5.19a22.66,22.66,0,0,0,2.65-12c-.28-5.3-8.56-5.33-8.28,0,.33,6.19-3.15,9.3-5.56,14.53-1.86,4-2.14,10.2,2,13,5.3,3.57,7.77-3.7,8.25-7.5.75-5.85-.7-11.59-.62-17.44,0-.75.69-3.16.45-3.72q-1.67-.15-.82,1.38,0,.9,0,1.81c.05,3.1-.06,6.21-.3,9.3a90.84,90.84,0,0,1-1.24,9.44c-.08.44-1.09,4.48-1,4.56q3.68-1.89.84-2l-1.67-.22c-1.07-.12-3-.54-4-.11q.48,1.5.42.34a7.4,7.4,0,0,1,.12-1.29c.33-2.93.8-5.83,1.07-8.77s.47-6.12.55-9.18c0-1.53.05-3.07.05-4.6,0-2.32-.26-2.62,2.31-2.27,2.23.3,4.42-.54,5.09-2.89.55-1.93-.68-4.79-2.89-5.09Z" style="fill:#e0b569"/><path d="M3.08,114.79c30.55,3.28,61.28-.18,91.88,1.93a90.27,90.27,0,0,0,10.33.54c3.63-.17,7.09-1.2,10.64-1.86,8-1.49,16,.1,23.82,1.43,14.51,2.45,29.18,3.54,43.85,4.34,17.44,1,34.93,1.58,52.25,4,2.09.29,3.91-2.65,1.59-3.78a15.33,15.33,0,0,1-8.55-11.08l-3,2.34,4.19,1.78,1.59-3.78c-5.78-2.06-7-9.33-6.24-14.69,1-6.73,4-12.92,4.68-19.75A2.08,2.08,0,0,0,228,74.1L170.5,75.18c-18.78.35-37.6.83-56.37-.16q-14.07-.75-28-2.81c-8.7-1.3-17.4-2.78-26.19-3.2-9.09-.44-18.19.23-27.28-.5a115.6,115.6,0,0,1-13.3-1.88c-3.41-.68-7.06-1.64-10.07.7C3,72.15,3.66,82.67,3.85,89.63c.12,4.66.32,9.45-1.07,14-1.25,4-3.28,7.27-2.66,11.63.38,2.63,4.36,1.51,4-1.1-.55-3.87,2.43-7.87,3.21-11.59A47.45,47.45,0,0,0,8,91.91c-.1-5.66-2-20.63,5.93-22,1.86-.32,4.91.85,6.78,1.18s3.53.59,5.3.83A121.87,121.87,0,0,0,39,73c8.29.23,16.58-.25,24.86.42,8.85.71,17.59,2.36,26.38,3.55,8.36,1.13,16.76,1.86,25.19,2.28,17.42.86,34.87.47,52.3.15L228,78.24l-2.07-2.07c-.76,8.33-5.58,16-4.82,24.55.55,6.08,3.42,11.74,9.42,13.87,2.18.78,3.76-2.86,1.59-3.78L228,109a2.1,2.1,0,0,0-3,2.34,19.2,19.2,0,0,0,10.45,13.56l1.59-3.78c-30.57-4.22-61.64-3-92.15-7.66-7.16-1.1-14.32-2.76-21.6-2.83s-14.33,2.81-21.73,2.42c-15.28-.8-30.41-1.29-45.73-1.08-17.57.25-35.17.54-52.67-1.34-2.64-.28-2.62,3.86,0,4.14Z" style="fill:#8f8688"/><path d="M42.29,56.77C40.92,54,42,51,41.53,48.12a9.74,9.74,0,0,0-2.17-4.84C35.86,39,30.18,37.12,27,32.43,16.82,17.3,45.2,13.26,54.17,15.71c6.36,1.74,12.63,8.05,9.71,15.12-1.88,4.54-6.82,6.67-10.13,10S49.31,48.31,49.38,53c0,2.48-.46,3.19-3.18,3.46-.78.08-6.51.47-4.69-2.27.88-1.32,4.58.29,5.83.35A5.38,5.38,0,0,0,50,54.08c1.23-.47.7-2.47-.55-2-2.33.88-10.94-2.46-10.57,3.11.3,4.48,8.35,3.9,11,2.57,1.36-.68,1.6-1.66,1.66-3.07.16-4.15-.12-8,2.78-11.45,3.24-3.81,8.24-5.83,10.84-10.24,5.92-10.07-5-19.08-14.26-20a45.17,45.17,0,0,0-19.75,3.05c-4.28,1.67-7.94,4.76-8.21,9.64-.34,6.21,4.39,10.83,9,14.15,3.47,2.48,7.37,4.84,7.62,9.55.15,3-.44,5.62.94,8.41.59,1.19,2.37.15,1.79-1Z" style="fill:#8f8688"/></svg>