<svg xmlns="http://www.w3.org/2000/svg" viewBox="0 0 81.08 21.4"><title>uqidev</title><path d="M9.21,0h2.32q.61,0,.61.55V13.24a4.43,4.43,0,0,1-1.2,3.32,4.59,4.59,0,0,1-3.35,1.17h-3a4.62,4.62,0,0,1-3.36-1.16A4.46,4.46,0,0,1,0,13.24V.58A.51.51,0,0,1,.58,0H2.92A.51.51,0,0,1,3.5.58V13.07a1.74,1.74,0,0,0,.37,1.25,1.69,1.69,0,0,0,1.23.37H7a1.74,1.74,0,0,0,1.25-.37,1.74,1.74,0,0,0,.37-1.25V.58A.51.51,0,0,1,9.21,0Z" style="fill:#8e8688"/><path d="M26.06,21.4H24A1.14,1.14,0,0,1,23,20.82l-1.79-3.09h-.74a4.62,4.62,0,0,1-3.36-1.16,4.46,4.46,0,0,1-1.19-3.34V4.49a4.46,4.46,0,0,1,1.19-3.34A4.61,4.61,0,0,1,20.44,0h3.09a4.61,4.61,0,0,1,3.36,1.16,4.46,4.46,0,0,1,1.19,3.34v8.74a4.71,4.71,0,0,1-.87,3,3.89,3.89,0,0,1-2.47,1.43l1.76,3.06a.52.52,0,0,1,0,.52A.51.51,0,0,1,26.06,21.4Zm-5-6.7h2a1.74,1.74,0,0,0,1.25-.37,1.73,1.73,0,0,0,.37-1.25V4.66a1.73,1.73,0,0,0-.37-1.25A1.73,1.73,0,0,0,23,3H21a1.68,1.68,0,0,0-1.24.37,1.78,1.78,0,0,0-.36,1.25v8.41a1.78,1.78,0,0,0,.36,1.25A1.68,1.68,0,0,0,21,14.7Z" style="fill:#8e8688"/><path d="M35.63.58V17.15a.51.51,0,0,1-.58.58H32.71a.51.51,0,0,1-.58-.58V.58A.51.51,0,0,1,32.71,0h2.34A.51.51,0,0,1,35.63.58Z" style="fill:#8e8688"/><path d="M39.71,17.15V.58A.51.51,0,0,1,40.29,0H47.1a4.59,4.59,0,0,1,3.35,1.17,4.44,4.44,0,0,1,1.2,3.32v8.74a4.43,4.43,0,0,1-1.2,3.32,4.59,4.59,0,0,1-3.35,1.17H40.29A.51.51,0,0,1,39.71,17.15Zm3.81-2.45h3a1.74,1.74,0,0,0,1.25-.37,1.74,1.74,0,0,0,.37-1.25V4.66a1.74,1.74,0,0,0-.37-1.25A1.74,1.74,0,0,0,46.53,3h-3a.27.27,0,0,0-.3.3V14.4A.27.27,0,0,0,43.52,14.7Z" style="fill:#8e8688"/><path d="M64.92,17.73h-9a.51.51,0,0,1-.58-.58V.58A.51.51,0,0,1,55.9,0h9q.55,0,.55.58V2.45q0,.58-.55.58H59.16q-.33,0-.33.3V6.92q0,.3.33.3h4.72a.51.51,0,0,1,.58.58V9.68a.51.51,0,0,1-.58.58H59.16q-.33,0-.33.3V14.4q0,.3.33.3h5.76q.55,0,.55.58v1.88Q65.47,17.73,64.92,17.73Z" style="fill:#8e8688"/><path d="M76.12,17.73H72.5a.64.64,0,0,1-.69-.58L67.54.63Q67.35,0,68.09,0h2.59a.62.62,0,0,1,.66.58l2.9,13.57h.11L77.25.58A.62.62,0,0,1,77.91,0H80.5q.69,0,.55.63L76.78,17.15A.65.65,0,0,1,76.12,17.73Z" style="fill:#8e8688"/></svg>