<svg xmlns="http://www.w3.org/2000/svg" viewBox="0 0 40.09 40.57"><title>Uqidev</title><path d="M13.16,39.21a5.34,5.34,0,0,0,1.44-4V17.13q0-.66-.73-.66H11.08a.62.62,0,0,0-.7.7V35a2.09,2.09,0,0,1-.45,1.51A2.09,2.09,0,0,1,8.43,37H6.14a2,2,0,0,1-1.48-.45A2.09,2.09,0,0,1,4.21,35V17.16a.62.62,0,0,0-.7-.7H.7a.62.62,0,0,0-.7.7v18a5.36,5.36,0,0,0,1.43,4,5.1,5.1,0,0,0,3.13,1.34H10A5.11,5.11,0,0,0,13.16,39.21Z" style="fill:#111"/><path d="M13.24,1.53a5.34,5.34,0,0,0-4-1.44H.74Q.08.09.08.82V3.6a.7.7,0,0,0,.7.7H9a2.09,2.09,0,0,1,1.51.45A2.09,2.09,0,0,1,11,6.26V8.55A2,2,0,0,1,10.56,10,2.09,2.09,0,0,1,9,10.47H.77a.7.7,0,0,0-.7.7V14a.7.7,0,0,0,.7.7H13.19c1.75,0,1.27-1.56,1.41-2.86V4.66A5.11,5.11,0,0,0,13.24,1.53Z" style="fill:#a1a1a1"/><path d="M29.08,29.86a.57.57,0,0,0-.57.57V35a2.09,2.09,0,0,1-.45,1.51,2.09,2.09,0,0,1-1.51.45H24.2a2,2,0,0,1-1.49-.45A2.14,2.14,0,0,1,22.27,35V5.73a2.14,2.14,0,0,1,.43-1.51,2,2,0,0,1,1.49-.45h2.36a2.09,2.09,0,0,1,1.51.45,2.09,2.09,0,0,1,.45,1.51v16.8a.57.57,0,0,0,.57.57h3a.57.57,0,0,0,.57-.57v-17a5.36,5.36,0,0,0-1.43-4,5.55,5.55,0,0,0-4-1.39H23.5a5.55,5.55,0,0,0-4,1.39,5.36,5.36,0,0,0-1.43,4V35.21a5.36,5.36,0,0,0,1.43,4,5.1,5.1,0,0,0,3.13,1.34l6.1-.08a4.69,4.69,0,0,0,3-1.73,5.67,5.67,0,0,0,1-3.55V30.43a.57.57,0,0,0-.57-.57Z" style="fill:#111"/><path d="M40.09,22.28V.7a.62.62,0,0,0-.7-.7H36.57a.62.62,0,0,0-.7.7V22.28a.6.6,0,0,0,.38.64h3.46A.6.6,0,0,0,40.09,22.28Z" style="fill:#111"/><path d="M29.47,24.83h9.81a.62.62,0,0,1,.7.7V39.87a.62.62,0,0,1-.7.7H36.45a.62.62,0,0,1-.7-.7v-11q0-.37-.4-.37H29.47q-.66,0-.66-.73V25.53Q28.81,24.83,29.47,24.83Z" style="fill:#f79636"/></svg>